<svg xmlns="http://www.w3.org/2000/svg" xmlns:xlink="http://www.w3.org/1999/xlink" width="200" zoomAndPan="magnify" viewBox="0 0 150 149.999998" height="200" preserveAspectRatio="xMidYMid meet" version="1.0"><defs><g/></defs><rect x="-15" width="180" fill="#ffffff" y="-15" height="179.999997" fill-opacity="1"/><rect x="-15" width="180" fill="#ffffff" y="-15" height="179.999997" fill-opacity="1"/><rect x="-15" width="180" fill="#007dff" y="-15" height="179.999997" fill-opacity="1"/><g fill="#ffffff" fill-opacity="1"><g transform="translate(31.924455, 81.187176)"><g><path d="M 48.285156 -8.074219 C 43.609375 -14.453125 38.253906 -20.148438 32.132812 -25.078125 C 36.722656 -28.308594 40.550781 -32.8125 42.164062 -37.660156 C 45.394531 -47.351562 36.722656 -56.871094 26.863281 -56.445312 C 16.40625 -55.9375 9.519531 -46.246094 7.652344 -36.808594 C 5.183594 -24.566406 5.183594 -11.5625 4.25 0.851562 C 3.570312 9.011719 16.320312 9.011719 17 0.851562 C 17.511719 -5.867188 18.023438 -12.582031 18.617188 -19.296875 C 25.84375 -14.535156 32.132812 -8.671875 37.320312 -1.613281 C 42.078125 4.929688 53.214844 -1.445312 48.285156 -8.074219 Z M 30.09375 -42.078125 C 30.433594 -40.71875 26.609375 -37.320312 25.585938 -36.382812 C 23.800781 -34.769531 22.101562 -33.578125 19.890625 -33.324219 C 20.148438 -34.769531 20.488281 -36.214844 21.082031 -37.574219 C 21.675781 -39.1875 28.902344 -47.859375 30.09375 -42.078125 Z M 30.09375 -42.078125 "/></g></g></g><g fill="#ffffff" fill-opacity="1"><g transform="translate(77.389527, 119.961778)"><g><path d="M 37.402344 -21.167969 C 30.773438 -20.65625 24.226562 -19.722656 17.765625 -18.363281 C 18.871094 -28.816406 19.890625 -39.273438 20.914062 -49.730469 C 21.675781 -57.890625 8.925781 -57.890625 8.160156 -49.730469 C 6.886719 -36.46875 5.527344 -23.207031 4.25 -9.945312 C 3.824219 -5.78125 8.671875 -2.804688 12.328125 -3.824219 C 20.570312 -6.207031 28.902344 -7.734375 37.402344 -8.414062 C 45.566406 -9.011719 45.648438 -21.761719 37.402344 -21.167969 Z M 37.402344 -21.167969 "/></g></g></g></svg>